<?xml version="1.0" encoding="utf-8"?>
<!-- Generator: Adobe Illustrator 28.0.0, SVG Export Plug-In . SVG Version: 6.00 Build 0)  -->
<svg version="1.1" id="Слой_1" xmlns="http://www.w3.org/2000/svg" xmlns:xlink="http://www.w3.org/1999/xlink" x="0px" y="0px"
	 viewBox="0 0 1024 1024" style="enable-background:new 0 0 1024 1024;" xml:space="preserve">
<style type="text/css">
	.st0{fill-rule:evenodd;clip-rule:evenodd;fill:#F87828;}
	.st1{fill-rule:evenodd;clip-rule:evenodd;fill:#ED8C04;}
	.st2{fill:#ED8C04;}
	.st3{fill-rule:evenodd;clip-rule:evenodd;fill:#070707;}
</style>
<g>
	<path class="st0" d="M51.7,923.8"/>
	<g>
		<g>
			<g>
				<path class="st1" d="M547.3,100.2l-79.4,72.2v358.5c20.5-1.3,41.1-2.1,61.7-2.4V348.9H565v179.7c20.5,0.4,41.1,1.3,61.7,2.7
					V172.4L547.3,100.2z M602.5,271H565v37.4h-35.5V271h-37.4v-35.4h37.4v-37.4H565v37.4h37.4V271z"/>
				<path class="st2" d="M440.5,232.8V533c-17,1.5-34,3.4-51.1,5.6V308.5l-25.6,12.7v221.1c-14.3,2.2-28.7,4.7-43,7.5V342.5
					L297,354.3v174.6l-0.4,0.1l0,3l0.2,18.6l0.1,3.9c-11.3,2.4-22.6,5-33.8,7.7c-27.2,7-54,15.3-80.3,24.8v-49h-0.4l75.8-29.1V323.2
					L297,304l23.8-11.8l43-21.3l25.6-12.7L440.5,232.8z"/>
			</g>
			<path class="st1" d="M912.2,538h-0.4v51.1c-37.3-13.6-75.3-24.7-114.1-33.5l0.1-5l0.2-16.9l0.1-4.7l-0.4-0.1V354.3l-23.8-11.8
				v208.1c-12.4-2.5-24.8-4.7-37.4-6.7c-1.9-0.3-3.7-0.6-5.6-0.9V321.2l-25.6-12.7v230.8c-17-2.3-34.1-4.3-51.1-5.8V232.8l51.1,25.3
				l25.6,12.7l43,21.3l23.8,11.8l38.8,19.2v185.7L912.2,538z"/>
		</g>
		<path class="st3" d="M972.3,665.3c-98.9-44.3-260.5-73.1-443-73.1s-344.1,28.8-443,73.1c64.2-60,238.3-103,443-103
			S908.2,605.3,972.3,665.3z"/>
	</g>
	<g>
		<g>
			<path d="M229.7,707.6h-27v100.3h-36.8V682.5h63.8V707.6z"/>
			<path d="M330.2,682.5l-10,83c-1.6,13.1-3.3,22.3-5.1,27.6c-1.8,5.3-5.3,9.1-10.5,11.3c-5.2,2.3-13.7,3.4-25.6,3.4h-21.5v-16.2
				h2.2c4.8,0,7.8-0.3,9-1c1.1-0.7,1.7-1.8,1.7-3.2c0-0.1-0.7-3.6-2.1-10.6L249,682.5h31.9l11.7,78.1l5.7-78.1H330.2z"/>
			<path d="M420.6,736.8c5.4,1.6,9.3,4.2,12,7.9c2.6,3.6,3.9,12.2,3.9,25.6c0,10-1.3,17.7-3.8,23.2c-2.6,5.5-7,9.7-13.3,12.5
				c-6.3,2.9-14.3,4.3-24.2,4.3c-11.2,0-19.9-1.7-26.3-5c-6.4-3.3-10.6-7.4-12.6-12.2c-2-4.8-3-13.2-3-25.1v-9.9h35.3v20.4
				c0,5.4,0.4,8.9,1.1,10.3c0.7,1.5,2.3,2.2,4.8,2.2c2.7,0,4.5-0.9,5.4-2.8c0.9-1.9,1.3-6.7,1.3-14.5V765c0-4.8-0.6-8.3-1.8-10.5
				c-1.2-2.2-3-3.7-5.4-4.4c-2.4-0.7-7-1.1-13.9-1.2v-18.2c8.4,0,13.6-0.3,15.5-0.9c2-0.6,3.4-1.8,4.3-3.7c0.9-1.9,1.3-4.9,1.3-9v-7
				c0-4.4-0.5-7.3-1.5-8.7c-1-1.4-2.6-2.1-4.8-2.1c-2.4,0-4.1,0.7-5,2.2c-0.9,1.5-1.4,4.6-1.4,9.4v10.3h-35.3v-10.7
				c0-12,3.1-20.1,9.3-24.3c6.2-4.2,16-6.3,29.4-6.3c16.8,0,28.2,2.9,34.2,8.7c6,5.8,9,13.9,9,24.3c0,7-1.1,12.1-3.2,15.2
				C429.8,731.4,426,734.3,420.6,736.8z"/>
		</g>
		<g>
			<path d="M558.4,682.6h36.8l0.2,52.9c6.9-0.2,10.5-3.6,10.7-10.2l0.7-24.5c0.2-9,2.2-15.1,5.9-18.3h34c-3.3,3-4.9,9.3-4.9,18.9
				l0.2,21.5c0.1,13-8.1,20.4-24.8,22.2c16.6,1.8,24.9,9.3,24.8,22.5l-0.2,20c-0.1,9.5,1.6,16.3,4.9,20.3h-34
				c-4-3.1-5.9-9.2-5.9-18.3v-24.5c0-3.1-1.1-5.6-3.2-7.5c-2.1-1.9-4.9-2.9-8.2-2.9l-0.2,53.1h-36.8V682.6z"/>
			<path d="M756.1,756.1c0,12.6-0.3,21.5-1,26.7c-0.7,5.2-2.8,10-6.3,14.4c-3.5,4.3-8.3,7.7-14.3,10c-6,2.3-13,3.5-20.9,3.5
				c-7.6,0-14.4-1.1-20.4-3.3c-6-2.2-10.9-5.5-14.5-9.9c-3.7-4.4-5.8-9.2-6.5-14.3c-0.7-5.2-1-14.2-1-27.1v-21.4
				c0-12.6,0.3-21.5,1-26.7c0.7-5.2,2.8-10,6.3-14.4c3.5-4.3,8.3-7.7,14.3-10c6-2.3,13-3.5,20.9-3.5c7.6,0,14.4,1.1,20.4,3.3
				c6,2.2,10.9,5.5,14.5,9.9c3.7,4.4,5.8,9.2,6.5,14.3c0.7,5.2,1,14.2,1,27.1V756.1z M719.4,714.9c0-5.8-0.4-9.6-1.1-11.2
				c-0.7-1.6-2.2-2.4-4.5-2.4c-1.9,0-3.4,0.7-4.4,2c-1,1.3-1.5,5.2-1.5,11.6v58.5c0,7.3,0.3,11.8,1,13.5c0.7,1.7,2.2,2.6,4.7,2.6
				c2.5,0,4.1-1,4.8-2.9c0.7-2,1-6.6,1-14V714.9z"/>
			<path d="M892.8,829.6h-25.4V808H808v21.6h-25.3v-47.7h7.5c4-10.3,7.2-23.8,9.7-40.5c2.5-16.7,3.8-35,3.8-54.9v-3.8h81.5v99.1h7.5
				V829.6z M848.5,781.7v-74.3h-10.9v0.9c0,24-2.9,48.4-8.7,73.4H848.5z"/>
		</g>
	</g>
</g>
</svg>
